<?xml version="1.0" encoding="utf-8" ?>
<svg baseProfile="full" height="1080px" version="1.1" viewBox="0 0 1080 1080" width="1080px" xmlns="http://www.w3.org/2000/svg" xmlns:ev="http://www.w3.org/2001/xml-events" xmlns:xlink="http://www.w3.org/1999/xlink"><defs /><path d="M 282,579 L 281,580 L 273,580 L 272,581 L 268,581 L 267,582 L 263,582 L 262,583 L 260,583 L 259,584 L 257,584 L 256,585 L 255,585 L 254,586 L 253,586 L 252,587 L 251,587 L 250,588 L 250,591 L 252,593 L 253,593 L 255,595 L 257,595 L 258,596 L 260,596 L 261,597 L 264,597 L 265,598 L 269,598 L 270,599 L 276,599 L 277,600 L 285,600 L 286,601 L 309,601 L 310,600 L 317,600 L 317,585 L 315,585 L 314,584 L 287,584 L 286,585 L 276,585 L 275,586 L 268,586 L 267,585 L 268,584 L 271,584 L 272,583 L 275,583 L 276,582 L 280,582 L 281,581 L 290,581 L 291,580 L 312,580 L 313,581 L 317,581 L 317,579 Z" fill="black" /><path d="M 764,578 L 763,579 L 760,579 L 760,594 L 771,594 L 772,595 L 784,595 L 785,594 L 799,594 L 800,593 L 808,593 L 809,592 L 815,592 L 816,591 L 818,591 L 819,592 L 818,593 L 817,593 L 816,594 L 814,594 L 813,595 L 811,595 L 810,596 L 806,596 L 805,597 L 800,597 L 799,598 L 760,598 L 760,600 L 793,600 L 794,599 L 803,599 L 804,598 L 810,598 L 811,597 L 815,597 L 816,596 L 818,596 L 819,595 L 821,595 L 822,594 L 824,594 L 825,593 L 826,593 L 829,590 L 829,588 L 828,587 L 828,586 L 827,586 L 826,585 L 825,585 L 824,584 L 823,584 L 822,583 L 820,583 L 819,582 L 817,582 L 816,581 L 812,581 L 811,580 L 806,580 L 805,579 L 797,579 L 796,578 Z" fill="black" /><path d="M 535,558 L 534,559 L 531,559 L 530,560 L 529,560 L 528,561 L 527,561 L 526,562 L 525,562 L 517,570 L 517,571 L 516,572 L 516,573 L 515,574 L 515,575 L 514,576 L 514,578 L 513,579 L 513,592 L 514,593 L 514,595 L 515,596 L 515,598 L 516,599 L 516,600 L 518,602 L 518,603 L 523,608 L 524,608 L 526,610 L 527,610 L 528,611 L 529,611 L 530,612 L 532,612 L 533,613 L 536,613 L 537,614 L 544,614 L 545,613 L 549,613 L 550,612 L 551,612 L 552,611 L 553,611 L 554,610 L 555,610 L 556,609 L 557,609 L 564,602 L 564,601 L 566,599 L 566,597 L 567,596 L 567,594 L 568,593 L 568,590 L 569,589 L 569,584 L 568,583 L 568,578 L 567,577 L 567,575 L 566,574 L 566,573 L 565,572 L 565,571 L 562,568 L 562,567 L 560,565 L 559,565 L 556,562 L 555,562 L 554,561 L 553,561 L 552,560 L 551,560 L 550,559 L 548,559 L 547,558 Z" fill="black" /><path d="M 335,384 L 334,385 L 334,391 L 335,392 L 335,393 L 336,394 L 336,395 L 337,396 L 337,397 L 338,398 L 338,399 L 340,401 L 340,402 L 342,404 L 342,405 L 344,407 L 344,408 L 348,412 L 348,413 L 353,418 L 353,419 L 359,425 L 359,426 L 365,432 L 366,432 L 371,437 L 372,437 L 374,439 L 375,439 L 377,437 L 377,436 L 385,428 L 383,426 L 383,425 L 364,406 L 363,406 L 357,400 L 356,400 L 352,396 L 351,396 L 349,394 L 348,394 L 346,392 L 347,391 L 348,391 L 349,392 L 350,392 L 352,394 L 353,394 L 355,396 L 356,396 L 359,399 L 360,399 L 364,403 L 365,403 L 369,407 L 370,407 L 387,424 L 387,425 L 389,425 L 389,423 L 388,422 L 387,422 L 383,418 L 383,417 L 382,417 L 363,398 L 362,398 L 359,395 L 358,395 L 356,393 L 355,393 L 352,390 L 351,390 L 349,388 L 348,388 L 347,387 L 346,387 L 345,386 L 344,386 L 343,385 L 341,385 L 340,384 Z" fill="black" /><path d="M 741,383 L 740,384 L 737,384 L 736,385 L 735,385 L 734,386 L 733,386 L 732,387 L 731,387 L 730,388 L 729,388 L 728,389 L 727,389 L 725,391 L 724,391 L 721,394 L 720,394 L 716,398 L 715,398 L 709,404 L 708,404 L 701,411 L 700,411 L 700,412 L 699,413 L 698,413 L 697,414 L 697,415 L 690,422 L 690,423 L 689,424 L 689,425 L 700,436 L 723,413 L 723,412 L 729,406 L 729,405 L 733,401 L 733,400 L 736,397 L 737,398 L 737,399 L 735,401 L 735,402 L 733,404 L 733,405 L 731,407 L 731,408 L 728,411 L 728,412 L 720,420 L 720,421 L 704,437 L 703,437 L 702,438 L 702,439 L 703,440 L 704,440 L 724,420 L 724,419 L 730,413 L 730,412 L 734,408 L 734,407 L 737,404 L 737,403 L 739,401 L 739,400 L 740,399 L 740,398 L 742,396 L 742,395 L 743,394 L 743,392 L 744,391 L 744,389 L 745,388 L 745,386 L 744,385 L 744,384 L 742,384 Z" fill="black" /><path d="M 528,383 L 527,384 L 516,384 L 515,385 L 508,385 L 507,386 L 507,389 L 506,390 L 506,394 L 505,395 L 505,399 L 504,400 L 504,404 L 503,405 L 503,408 L 501,410 L 498,410 L 497,411 L 494,411 L 493,412 L 490,412 L 489,413 L 486,413 L 485,414 L 483,414 L 482,415 L 480,415 L 479,416 L 477,416 L 476,417 L 475,417 L 474,418 L 472,418 L 471,419 L 470,419 L 469,420 L 467,420 L 466,421 L 465,421 L 464,422 L 463,422 L 462,423 L 461,423 L 460,424 L 458,424 L 457,425 L 456,425 L 455,426 L 454,426 L 452,428 L 451,428 L 450,429 L 449,429 L 447,431 L 446,431 L 445,432 L 444,432 L 443,433 L 442,433 L 440,435 L 439,435 L 438,436 L 437,436 L 436,437 L 435,437 L 433,435 L 432,435 L 430,433 L 429,433 L 427,431 L 426,431 L 424,429 L 423,429 L 421,427 L 420,427 L 417,424 L 416,424 L 415,425 L 414,425 L 410,429 L 409,429 L 405,433 L 404,433 L 384,453 L 384,454 L 379,459 L 379,460 L 376,463 L 376,464 L 372,468 L 372,469 L 374,471 L 374,472 L 376,474 L 376,475 L 378,477 L 378,478 L 380,480 L 380,481 L 382,483 L 382,484 L 384,486 L 384,487 L 385,488 L 385,490 L 384,491 L 384,492 L 383,493 L 383,494 L 381,496 L 381,497 L 380,498 L 380,499 L 379,500 L 379,501 L 377,503 L 377,504 L 376,505 L 376,506 L 375,507 L 375,508 L 374,509 L 374,511 L 373,512 L 373,513 L 372,514 L 372,515 L 371,516 L 371,517 L 370,518 L 370,519 L 369,520 L 369,521 L 368,522 L 368,524 L 367,525 L 367,527 L 366,528 L 366,530 L 365,531 L 365,533 L 364,534 L 364,535 L 363,536 L 363,539 L 362,540 L 362,543 L 361,544 L 361,547 L 360,548 L 360,551 L 359,552 L 359,554 L 358,555 L 355,555 L 354,556 L 350,556 L 349,557 L 345,557 L 344,558 L 340,558 L 339,559 L 336,559 L 336,561 L 335,562 L 335,571 L 334,572 L 334,604 L 335,605 L 335,614 L 336,615 L 336,622 L 337,623 L 341,623 L 342,624 L 347,624 L 348,625 L 352,625 L 353,626 L 357,626 L 358,627 L 359,627 L 360,628 L 360,631 L 361,632 L 361,635 L 362,636 L 362,638 L 363,639 L 365,637 L 366,637 L 370,633 L 371,633 L 373,631 L 374,631 L 376,629 L 377,629 L 378,628 L 379,628 L 380,627 L 381,627 L 382,626 L 383,626 L 384,625 L 386,625 L 387,624 L 388,624 L 389,623 L 391,623 L 391,618 L 390,617 L 390,611 L 389,610 L 389,605 L 388,604 L 388,601 L 389,600 L 433,600 L 434,601 L 435,601 L 437,603 L 438,603 L 440,605 L 447,605 L 448,604 L 454,604 L 455,603 L 462,603 L 463,602 L 469,602 L 469,578 L 470,577 L 470,573 L 471,572 L 471,570 L 472,569 L 472,566 L 473,565 L 473,564 L 474,563 L 474,561 L 475,560 L 475,559 L 476,558 L 476,557 L 477,556 L 477,555 L 479,553 L 479,552 L 481,550 L 481,549 L 483,547 L 483,546 L 497,532 L 498,532 L 500,530 L 501,530 L 503,528 L 504,528 L 505,527 L 506,527 L 507,526 L 508,526 L 509,525 L 510,525 L 511,524 L 512,524 L 513,523 L 515,523 L 516,522 L 518,522 L 519,521 L 521,521 L 522,520 L 526,520 L 527,519 L 533,519 L 534,518 L 546,518 L 547,519 L 552,519 L 553,520 L 557,520 L 558,521 L 560,521 L 561,522 L 563,522 L 564,523 L 565,523 L 566,524 L 568,524 L 569,525 L 570,525 L 571,526 L 572,526 L 573,527 L 574,527 L 576,529 L 577,529 L 578,530 L 579,530 L 581,532 L 582,532 L 596,546 L 596,547 L 599,550 L 599,551 L 600,552 L 600,553 L 602,555 L 602,556 L 603,557 L 603,558 L 604,559 L 604,560 L 605,561 L 605,563 L 606,564 L 606,565 L 607,566 L 607,568 L 608,569 L 608,572 L 609,573 L 609,577 L 610,578 L 610,587 L 611,588 L 611,591 L 610,592 L 610,600 L 609,601 L 609,606 L 610,605 L 618,605 L 619,604 L 639,604 L 640,603 L 641,603 L 644,600 L 645,600 L 646,599 L 647,599 L 648,598 L 653,598 L 654,599 L 665,599 L 666,600 L 685,600 L 686,599 L 690,599 L 691,600 L 691,603 L 690,604 L 690,610 L 693,610 L 694,611 L 697,611 L 698,612 L 700,612 L 701,613 L 703,613 L 704,614 L 706,614 L 707,615 L 709,615 L 710,616 L 711,616 L 712,617 L 713,617 L 714,618 L 715,618 L 716,619 L 718,619 L 719,620 L 720,620 L 721,621 L 722,621 L 723,622 L 724,622 L 726,624 L 727,624 L 728,625 L 729,625 L 730,624 L 735,624 L 736,623 L 740,623 L 740,622 L 741,621 L 741,616 L 742,615 L 742,606 L 743,605 L 743,570 L 742,569 L 742,562 L 741,561 L 741,559 L 739,559 L 738,558 L 734,558 L 733,557 L 729,557 L 728,556 L 724,556 L 723,555 L 721,555 L 720,554 L 720,552 L 719,551 L 719,548 L 718,547 L 718,544 L 717,543 L 717,540 L 716,539 L 716,536 L 715,535 L 715,533 L 714,532 L 714,531 L 713,530 L 713,528 L 712,527 L 712,525 L 711,524 L 711,522 L 710,521 L 710,520 L 709,519 L 709,517 L 708,516 L 708,515 L 707,514 L 707,513 L 706,512 L 706,511 L 705,510 L 705,509 L 704,508 L 704,507 L 703,506 L 703,505 L 702,504 L 702,503 L 701,502 L 701,501 L 699,499 L 699,498 L 698,497 L 698,496 L 696,494 L 696,493 L 695,492 L 695,491 L 693,489 L 693,486 L 695,484 L 695,483 L 697,481 L 697,480 L 699,478 L 699,477 L 701,475 L 701,474 L 703,472 L 703,471 L 705,469 L 705,468 L 702,465 L 702,464 L 698,460 L 698,459 L 694,455 L 694,454 L 673,433 L 672,433 L 667,428 L 666,428 L 662,424 L 660,424 L 658,426 L 657,426 L 654,429 L 653,429 L 651,431 L 650,431 L 648,433 L 647,433 L 645,435 L 644,435 L 643,436 L 641,436 L 639,434 L 638,434 L 636,432 L 635,432 L 634,431 L 633,431 L 631,429 L 630,429 L 629,428 L 628,428 L 627,427 L 626,427 L 625,426 L 624,426 L 623,425 L 622,425 L 621,424 L 620,424 L 619,423 L 618,423 L 617,422 L 615,422 L 614,421 L 613,421 L 612,420 L 611,420 L 610,419 L 608,419 L 607,418 L 606,418 L 605,417 L 603,417 L 602,416 L 600,416 L 599,415 L 598,415 L 597,414 L 594,414 L 593,413 L 591,413 L 590,412 L 587,412 L 586,411 L 583,411 L 582,410 L 577,410 L 576,409 L 575,409 L 574,408 L 574,407 L 573,406 L 573,402 L 572,401 L 572,396 L 571,395 L 571,391 L 570,390 L 570,386 L 569,385 L 562,385 L 561,384 L 549,384 L 548,383 Z" fill="black" /><path d="M 538,299 L 535,302 L 535,303 L 534,304 L 534,306 L 533,307 L 533,309 L 532,310 L 532,313 L 531,314 L 531,319 L 530,320 L 530,326 L 529,327 L 529,335 L 528,336 L 528,362 L 529,363 L 529,367 L 532,367 L 533,366 L 544,366 L 544,363 L 545,362 L 545,339 L 544,338 L 544,326 L 543,325 L 543,318 L 544,317 L 545,318 L 545,321 L 546,322 L 546,326 L 547,327 L 547,332 L 548,333 L 548,342 L 549,343 L 549,358 L 548,359 L 548,367 L 549,367 L 550,366 L 550,334 L 549,333 L 549,324 L 548,323 L 548,318 L 547,317 L 547,313 L 546,312 L 546,309 L 545,308 L 545,306 L 544,305 L 544,304 L 543,303 L 543,302 L 540,299 Z" fill="black" /></svg>